HIERARCHY
ROOT Hips
{
 OFFSET 0.000000 0.000000 0.000000
 CHANNELS 6 Xposition Yposition Zposition Yrotation Xrotation Zrotation
 JOINT Chest
 {
  OFFSET 0.000000 9.585900 0.002600
  CHANNELS 3 Yrotation Xrotation Zrotation
  JOINT Chest2
  {
   OFFSET 0.000000 9.601200 -0.005300
   CHANNELS 3 Yrotation Xrotation Zrotation
   JOINT Chest3
   {
    OFFSET 0.000000 9.561800 0.000000
    CHANNELS 3 Yrotation Xrotation Zrotation
    JOINT Chest4
    {
     OFFSET 0.000000 9.552100 0.000000
     CHANNELS 3 Yrotation Xrotation Zrotation
     JOINT Neck
     {
      OFFSET 0.000000 14.453000 0.000000
      CHANNELS 3 Yrotation Xrotation Zrotation
      JOINT Head
      {
       OFFSET 0.000000 8.936500 -0.011300
       CHANNELS 3 Yrotation Xrotation Zrotation
       End Site
       {
        OFFSET 0.000000 17.073600 -0.006000
       }
      }
     }
     JOINT RightCollar
     {
      OFFSET -2.921100 9.558500 0.000000
      CHANNELS 3 Yrotation Xrotation Zrotation
      JOINT RightShoulder
      {
       OFFSET -13.519700 0.000000 0.000000
       CHANNELS 3 Yrotation Xrotation Zrotation
       JOINT RightElbow
       {
        OFFSET 0.000000 -29.696600 0.000000
        CHANNELS 3 Yrotation Xrotation Zrotation
        JOINT RightWrist
        {
         OFFSET 0.000000 -24.004700 0.000000
         CHANNELS 3 Yrotation Xrotation Zrotation
         End Site
         {
          OFFSET 0.000000 -17.728500 0.000000
         }
        }
       }
      }
     }
     JOINT LeftCollar
     {
      OFFSET 2.921100 9.558500 0.000000
      CHANNELS 3 Yrotation Xrotation Zrotation
      JOINT LeftShoulder
      {
       OFFSET 13.519700 0.000000 0.000000
       CHANNELS 3 Yrotation Xrotation Zrotation
       JOINT LeftElbow
       {
        OFFSET 0.000000 -29.696600 0.000000
        CHANNELS 3 Yrotation Xrotation Zrotation
        JOINT LeftWrist
        {
         OFFSET 0.000000 -24.004700 0.000000
         CHANNELS 3 Yrotation Xrotation Zrotation
         End Site
         {
          OFFSET 0.000000 -17.728500 0.000000
         }
        }
       }
      }
     }
    }
   }
  }
 }
 JOINT RightHip
 {
  OFFSET -7.771700 -0.012900 -0.001300
  CHANNELS 3 Yrotation Xrotation Zrotation
  JOINT RightKnee
  {
   OFFSET 0.000000 -40.869800 0.001200
   CHANNELS 3 Yrotation Xrotation Zrotation
   JOINT RightAnkle
   {
    OFFSET 0.000000 -39.717900 0.002100
    CHANNELS 3 Yrotation Xrotation Zrotation
    JOINT RightToe
    {
     OFFSET 0.000000 -4.965400 11.033500
     CHANNELS 3 Yrotation Xrotation Zrotation
     End Site
     {
      OFFSET 0.000000 -1.423100 5.872300
     }
    }
   }
  }
 }
 JOINT LeftHip
 {
  OFFSET 7.771700 -0.012900 -0.001300
  CHANNELS 3 Yrotation Xrotation Zrotation
  JOINT LeftKnee
  {
   OFFSET 0.000000 -40.869800 0.001200
   CHANNELS 3 Yrotation Xrotation Zrotation
   JOINT LeftAnkle
   {
    OFFSET 0.000000 -39.717900 0.002100
    CHANNELS 3 Yrotation Xrotation Zrotation
    JOINT LeftToe
    {
     OFFSET 0.000000 -4.965400 11.033500
     CHANNELS 3 Yrotation Xrotation Zrotation
     End Site
     {
      OFFSET 0.000000 -1.423100 5.872300
     }
    }
   }
  }
 }
}
MOTION
Frames: 5
Frame Time: 0.008333
0.000000 85.388000 0.000000 0.000000 -5.767877 0.000000 0.000000 11.653817 0.000000 0.000000 -5.885947 0.000000 0.000000 -0.000000 0.000000 0.000000 -0.000000 0.000000 0.000000 12.528835 0.000000 0.000000 0.711642 0.000000 0.000000 -0.000000 0.000000 0.000000 0.000000 -90.000000 0.000000 -2.309062 0.000000 0.000000 2.309062 0.000000 0.000000 -0.000000 0.000000 0.000000 -0.000000 90.000000 0.000000 -2.309062 0.000000 0.000000 2.309062 0.000000 0.000000 8.520406 0.000000 0.000000 1.905762 0.000000 -0.000000 -4.658285 0.000000 0.000000 -0.000000 0.000000 0.000000 8.520406 0.000000 0.000000 1.905762 0.000000 -0.000000 -4.658285 0.000000 0.000000 -0.000000 0.000000
-112.168770 61.962731 18.969987 175.506944 -49.623423 -0.269541 4.928653 26.134527 2.390359 0.658878 4.351551 0.360217 1.038498 6.889241 0.577906 3.671648 21.313907 2.366741 0.699688 14.263921 -4.414956 3.064694 -9.082682 -8.550957 1.862349 6.498333 4.781002 -15.042553 -9.814148 -17.167452 -68.465857 -37.501620 108.458685 -15.955878 5.327530 -16.327704 -8.550200 4.906941 1.417748 9.666053 -9.850550 7.636874 65.181761 -52.273695 -85.854179 28.977069 -8.130221 18.805921 4.784868 -17.226528 -5.175979 -3.145981 59.457773 -8.070122 -0.732067 -5.572248 10.453748 0.330124 -0.764589 0.146284 -5.264379 -14.037080 1.963480 31.361475 75.133284 33.616921 1.822554 -11.374258 -6.407689 0.263623 0.840587 0.143023
-112.169813 61.964161 18.973406 175.495995 -49.646489 -0.275080 4.900212 26.100810 2.356645 0.677314 4.378377 0.373791 1.037651 6.897368 0.578940 3.628777 21.296431 2.333636 0.705418 14.362711 -4.370622 2.989570 -8.948080 -8.477495 1.920457 6.453875 4.802093 -14.627668 -9.791617 -17.344601 -68.727636 -38.024084 108.895030 -15.301259 6.385339 -15.279175 -8.588884 4.881918 1.364686 9.309941 -9.840925 7.905640 65.247364 -53.023760 -86.602829 28.689200 -7.568657 18.448268 4.788143 -17.200040 -5.161030 -3.149638 59.441695 -8.068299 -0.733523 -5.563538 10.454775 0.334677 -0.765051 0.144397 -5.260012 -14.012415 1.975334 31.339078 75.132579 33.595019 1.819621 -11.368584 -6.405203 0.310079 0.836867 0.139018
-112.172631 61.965657 18.976869 175.483866 -49.671082 -0.272519 4.891277 26.100007 2.341813 0.656399 4.357797 0.357129 1.063742 6.929185 0.597041 3.632546 21.303733 2.334486 0.654740 14.435055 -4.345559 2.906859 -8.808868 -8.402817 1.918262 6.372956 4.801104 -14.181162 -9.755941 -17.516573 -69.047239 -38.516300 109.337997 -14.672135 7.351685 -14.291010 -8.677384 4.832679 1.303713 8.938885 -9.833507 8.168373 65.388899 -53.771887 -87.427232 28.370625 -7.000970 18.127448 4.790454 -17.173425 -5.157561 -3.149370 59.429423 -8.061283 -0.730960 -5.557930 10.454240 0.339697 -0.762195 0.140423 -5.255913 -13.985820 1.972898 31.349278 75.125896 33.605061 1.822448 -11.366304 -6.401389 0.257020 0.832499 0.128087
-112.176318 61.966402 18.980724 175.481387 -49.689762 -0.274490 4.885108 26.106162 2.335327 0.646879 4.349130 0.347824 1.078962 6.945693 0.609510 3.622636 21.302614 2.328560 0.599556 14.512243 -4.322490 2.815689 -8.663900 -8.325999 1.906490 6.292407 4.796568 -13.722254 -9.716695 -17.678524 -69.370598 -38.990984 109.788953 -14.089583 8.185648 -13.393118 -8.768185 4.781006 1.239614 8.559669 -9.811463 8.433614 65.629260 -54.492733 -88.332663 28.008268 -6.433086 17.836262 4.786812 -17.153200 -5.156880 -3.143222 59.420413 -8.052107 -0.731367 -5.556004 10.454991 0.341093 -0.761376 0.139458 -5.251459 -13.966236 1.970628 31.344373 75.121309 33.603098 1.819219 -11.369244 -6.400243 0.256661 0.836411 0.126159
